<svg width="25" height="25" viewBox="0 0 25 25" fill="none" xmlns="http://www.w3.org/2000/svg">
<path d="M17.6339 11.6071H13.3928V7.36604C13.3928 7.24327 13.2924 7.14282 13.1696 7.14282H11.8303C11.7076 7.14282 11.6071 7.24327 11.6071 7.36604V11.6071H7.36604C7.24327 11.6071 7.14282 11.7076 7.14282 11.8303V13.1696C7.14282 13.2924 7.24327 13.3928 7.36604 13.3928H11.6071V17.6339C11.6071 17.7567 11.7076 17.8571 11.8303 17.8571H13.1696C13.2924 17.8571 13.3928 17.7567 13.3928 17.6339V13.3928H17.6339C17.7567 13.3928 17.8571 13.2924 17.8571 13.1696V11.8303C17.8571 11.7076 17.7567 11.6071 17.6339 11.6071Z" fill="white"/>
<path d="M12.5 0C5.5971 0 0 5.5971 0 12.5C0 19.4029 5.5971 25 12.5 25C19.4029 25 25 19.4029 25 12.5C25 5.5971 19.4029 0 12.5 0ZM12.5 22.8795C6.76897 22.8795 2.12054 18.231 2.12054 12.5C2.12054 6.76897 6.76897 2.12054 12.5 2.12054C18.231 2.12054 22.8795 6.76897 22.8795 12.5C22.8795 18.231 18.231 22.8795 12.5 22.8795Z" fill="white"/>
</svg>
